<svg width="23" height="23" viewBox="0 0 23 23" fill="none" xmlns="http://www.w3.org/2000/svg">
<path d="M18.2917 15.2964C18.2917 15.7566 17.9186 16.1297 17.4583 16.1297C16.9981 16.1297 16.625 15.7566 16.625 15.2964C16.625 15.2452 16.6566 15.0455 16.9154 14.6573C17.0501 14.4553 17.2295 14.2272 17.4583 13.9728C17.6872 14.2272 17.8666 14.4553 18.0013 14.6573C18.2601 15.0455 18.2917 15.2452 18.2917 15.2964Z" fill="#344054" stroke="#344054" stroke-width="2"/>
<path d="M10.0579 2.69434L11.6783 4.31479" stroke="#344054" stroke-width="2" stroke-linecap="round"/>
<path d="M11.3541 3.99023L4.22412 11.1202L9.40957 16.3057L16.5395 9.17568L11.3541 3.99023Z" stroke="#344054" stroke-width="2" stroke-linejoin="round"/>
<path d="M6 9.37158L13.7738 11.9274" stroke="#344054" stroke-width="2" stroke-linecap="round"/>
<path d="M2.33325 19.8799H20.6666" stroke="#344054" stroke-width="1.41553" stroke-linecap="round"/>
</svg>
